<svg id="visual" viewBox="0 0 960 540" width="960" height="540" xmlns="http://www.w3.org/2000/svg" xmlns:xlink="http://www.w3.org/1999/xlink" version="1.1"><rect x="0" y="0" width="960" height="540" fill="#201F1F"></rect><path d="M0 390L9.3 389.2C18.7 388.3 37.3 386.7 56.2 381.5C75 376.3 94 367.7 112.8 363.2C131.7 358.7 150.3 358.3 169.2 377C188 395.7 207 433.3 225.8 451.3C244.7 469.3 263.3 467.7 282.2 457.3C301 447 320 428 338.8 425.3C357.7 422.7 376.3 436.3 395.2 446.7C414 457 433 464 451.8 459.5C470.7 455 489.3 439 508.2 431C527 423 546 423 564.8 413.8C583.7 404.7 602.3 386.3 621.2 378.3C640 370.3 659 372.7 677.8 388.3C696.7 404 715.3 433 734.2 445.5C753 458 772 454 790.8 447.7C809.7 441.3 828.3 432.7 847.2 415C866 397.3 885 370.7 903.8 366.5C922.7 362.3 941.3 380.7 950.7 389.8L960 399L960 541L950.7 541C941.3 541 922.7 541 903.8 541C885 541 866 541 847.2 541C828.3 541 809.7 541 790.8 541C772 541 753 541 734.2 541C715.3 541 696.7 541 677.8 541C659 541 640 541 621.2 541C602.3 541 583.7 541 564.8 541C546 541 527 541 508.2 541C489.3 541 470.7 541 451.8 541C433 541 414 541 395.2 541C376.3 541 357.7 541 338.8 541C320 541 301 541 282.2 541C263.3 541 244.7 541 225.8 541C207 541 188 541 169.2 541C150.3 541 131.7 541 112.8 541C94 541 75 541 56.2 541C37.3 541 18.7 541 9.3 541L0 541Z" fill="#5271FF" stroke-linecap="round" stroke-linejoin="miter"></path></svg>